<mxfile host="app.diagrams.net" agent="Mozilla/5.0 (X11; Linux x86_64; rv:133.0) Gecko/20100101 Firefox/133.0" version="25.0.3">
  <diagram name="Page-1" id="gV_RuZHqOb34IBJK7emO">
    <mxGraphModel dx="1687" dy="925" grid="1" gridSize="10" guides="1" tooltips="1" connect="1" arrows="1" fold="1" page="1" pageScale="1" pageWidth="827" pageHeight="1169" math="0" shadow="0">
      <root>
        <mxCell id="0" />
        <mxCell id="1" parent="0" />
        <mxCell id="jI8Y15pv29QjvpD9m3hr-51" value="" style="shape=folder;fontStyle=1;tabWidth=80;tabHeight=30;tabPosition=left;html=1;boundedLbl=1;whiteSpace=wrap;" vertex="1" parent="1">
          <mxGeometry x="590" y="60" width="690" height="490" as="geometry" />
        </mxCell>
        <mxCell id="jI8Y15pv29QjvpD9m3hr-1" value="CLI" style="swimlane;fontStyle=1;align=center;verticalAlign=top;childLayout=stackLayout;horizontal=1;startSize=26;horizontalStack=0;resizeParent=1;resizeParentMax=0;resizeLast=0;collapsible=1;marginBottom=0;whiteSpace=wrap;html=1;" vertex="1" parent="1">
          <mxGeometry x="280" y="267" width="170" height="112" as="geometry" />
        </mxCell>
        <mxCell id="jI8Y15pv29QjvpD9m3hr-32" value="+ stan: ClientState" style="text;strokeColor=none;fillColor=none;align=left;verticalAlign=top;spacingLeft=4;spacingRight=4;overflow=hidden;rotatable=0;points=[[0,0.5],[1,0.5]];portConstraint=eastwest;whiteSpace=wrap;html=1;" vertex="1" parent="jI8Y15pv29QjvpD9m3hr-1">
          <mxGeometry y="26" width="170" height="26" as="geometry" />
        </mxCell>
        <mxCell id="jI8Y15pv29QjvpD9m3hr-2" value="socket: ServerCommunicator" style="text;strokeColor=none;fillColor=none;align=left;verticalAlign=top;spacingLeft=4;spacingRight=4;overflow=hidden;rotatable=0;points=[[0,0.5],[1,0.5]];portConstraint=eastwest;whiteSpace=wrap;html=1;" vertex="1" parent="jI8Y15pv29QjvpD9m3hr-1">
          <mxGeometry y="52" width="170" height="26" as="geometry" />
        </mxCell>
        <mxCell id="jI8Y15pv29QjvpD9m3hr-3" value="" style="line;strokeWidth=1;fillColor=none;align=left;verticalAlign=middle;spacingTop=-1;spacingLeft=3;spacingRight=3;rotatable=0;labelPosition=right;points=[];portConstraint=eastwest;strokeColor=inherit;" vertex="1" parent="jI8Y15pv29QjvpD9m3hr-1">
          <mxGeometry y="78" width="170" height="8" as="geometry" />
        </mxCell>
        <mxCell id="jI8Y15pv29QjvpD9m3hr-4" value="+ method(type): type" style="text;strokeColor=none;fillColor=none;align=left;verticalAlign=top;spacingLeft=4;spacingRight=4;overflow=hidden;rotatable=0;points=[[0,0.5],[1,0.5]];portConstraint=eastwest;whiteSpace=wrap;html=1;" vertex="1" parent="jI8Y15pv29QjvpD9m3hr-1">
          <mxGeometry y="86" width="170" height="26" as="geometry" />
        </mxCell>
        <mxCell id="jI8Y15pv29QjvpD9m3hr-5" value="«interface»&lt;br&gt;&lt;b&gt;ClientState&lt;/b&gt;" style="html=1;whiteSpace=wrap;" vertex="1" parent="1">
          <mxGeometry x="600" y="298" width="110" height="50" as="geometry" />
        </mxCell>
        <mxCell id="jI8Y15pv29QjvpD9m3hr-6" value="1" style="endArrow=open;html=1;endSize=12;startArrow=diamondThin;startSize=14;startFill=1;edgeStyle=orthogonalEdgeStyle;align=left;verticalAlign=bottom;rounded=0;exitX=1;exitY=0.5;exitDx=0;exitDy=0;entryX=0;entryY=0.5;entryDx=0;entryDy=0;" edge="1" parent="1" source="jI8Y15pv29QjvpD9m3hr-1" target="jI8Y15pv29QjvpD9m3hr-5">
          <mxGeometry x="-1" y="3" relative="1" as="geometry">
            <mxPoint x="490" y="390" as="sourcePoint" />
            <mxPoint x="650" y="390" as="targetPoint" />
          </mxGeometry>
        </mxCell>
        <mxCell id="jI8Y15pv29QjvpD9m3hr-9" value="1" style="text;html=1;align=center;verticalAlign=middle;resizable=0;points=[];autosize=1;strokeColor=none;fillColor=none;" vertex="1" parent="1">
          <mxGeometry x="570" y="298" width="30" height="30" as="geometry" />
        </mxCell>
        <mxCell id="jI8Y15pv29QjvpD9m3hr-10" value="" style="endArrow=block;dashed=1;endFill=0;endSize=12;html=1;rounded=0;entryX=1;entryY=0.5;entryDx=0;entryDy=0;" edge="1" parent="1" source="jI8Y15pv29QjvpD9m3hr-15" target="jI8Y15pv29QjvpD9m3hr-5">
          <mxGeometry width="160" relative="1" as="geometry">
            <mxPoint x="830" y="360" as="sourcePoint" />
            <mxPoint x="780" y="290" as="targetPoint" />
          </mxGeometry>
        </mxCell>
        <mxCell id="jI8Y15pv29QjvpD9m3hr-15" value="State" style="swimlane;fontStyle=1;align=center;verticalAlign=top;childLayout=stackLayout;horizontal=1;startSize=26;horizontalStack=0;resizeParent=1;resizeParentMax=0;resizeLast=0;collapsible=1;marginBottom=0;whiteSpace=wrap;html=1;" vertex="1" parent="1">
          <mxGeometry x="870" y="280" width="160" height="86" as="geometry" />
        </mxCell>
        <mxCell id="jI8Y15pv29QjvpD9m3hr-16" value="+ field: type" style="text;strokeColor=none;fillColor=none;align=left;verticalAlign=top;spacingLeft=4;spacingRight=4;overflow=hidden;rotatable=0;points=[[0,0.5],[1,0.5]];portConstraint=eastwest;whiteSpace=wrap;html=1;" vertex="1" parent="jI8Y15pv29QjvpD9m3hr-15">
          <mxGeometry y="26" width="160" height="26" as="geometry" />
        </mxCell>
        <mxCell id="jI8Y15pv29QjvpD9m3hr-17" value="" style="line;strokeWidth=1;fillColor=none;align=left;verticalAlign=middle;spacingTop=-1;spacingLeft=3;spacingRight=3;rotatable=0;labelPosition=right;points=[];portConstraint=eastwest;strokeColor=inherit;" vertex="1" parent="jI8Y15pv29QjvpD9m3hr-15">
          <mxGeometry y="52" width="160" height="8" as="geometry" />
        </mxCell>
        <mxCell id="jI8Y15pv29QjvpD9m3hr-18" value="+ method(type): type" style="text;strokeColor=none;fillColor=none;align=left;verticalAlign=top;spacingLeft=4;spacingRight=4;overflow=hidden;rotatable=0;points=[[0,0.5],[1,0.5]];portConstraint=eastwest;whiteSpace=wrap;html=1;" vertex="1" parent="jI8Y15pv29QjvpD9m3hr-15">
          <mxGeometry y="60" width="160" height="26" as="geometry" />
        </mxCell>
        <mxCell id="jI8Y15pv29QjvpD9m3hr-19" value="Extends" style="endArrow=block;endSize=16;endFill=0;html=1;rounded=0;" edge="1" parent="1" source="jI8Y15pv29QjvpD9m3hr-20" target="jI8Y15pv29QjvpD9m3hr-15">
          <mxGeometry width="160" relative="1" as="geometry">
            <mxPoint x="850" y="450" as="sourcePoint" />
            <mxPoint x="790" y="380" as="targetPoint" />
            <Array as="points" />
          </mxGeometry>
        </mxCell>
        <mxCell id="jI8Y15pv29QjvpD9m3hr-20" value="PlayingState" style="swimlane;fontStyle=0;childLayout=stackLayout;horizontal=1;startSize=26;fillColor=none;horizontalStack=0;resizeParent=1;resizeParentMax=0;resizeLast=0;collapsible=1;marginBottom=0;whiteSpace=wrap;html=1;" vertex="1" parent="1">
          <mxGeometry x="740" y="460" width="140" height="78" as="geometry" />
        </mxCell>
        <mxCell id="jI8Y15pv29QjvpD9m3hr-22" value="move" style="text;strokeColor=none;fillColor=none;align=left;verticalAlign=top;spacingLeft=4;spacingRight=4;overflow=hidden;rotatable=0;points=[[0,0.5],[1,0.5]];portConstraint=eastwest;whiteSpace=wrap;html=1;" vertex="1" parent="jI8Y15pv29QjvpD9m3hr-20">
          <mxGeometry y="26" width="140" height="26" as="geometry" />
        </mxCell>
        <mxCell id="jI8Y15pv29QjvpD9m3hr-23" value="showBoard" style="text;strokeColor=none;fillColor=none;align=left;verticalAlign=top;spacingLeft=4;spacingRight=4;overflow=hidden;rotatable=0;points=[[0,0.5],[1,0.5]];portConstraint=eastwest;whiteSpace=wrap;html=1;" vertex="1" parent="jI8Y15pv29QjvpD9m3hr-20">
          <mxGeometry y="52" width="140" height="26" as="geometry" />
        </mxCell>
        <mxCell id="jI8Y15pv29QjvpD9m3hr-24" value="Extends" style="endArrow=block;endSize=16;endFill=0;html=1;rounded=0;" edge="1" parent="1" source="jI8Y15pv29QjvpD9m3hr-25" target="jI8Y15pv29QjvpD9m3hr-15">
          <mxGeometry width="160" relative="1" as="geometry">
            <mxPoint x="1090" y="464" as="sourcePoint" />
            <mxPoint x="1190" y="380" as="targetPoint" />
          </mxGeometry>
        </mxCell>
        <mxCell id="jI8Y15pv29QjvpD9m3hr-59" style="edgeStyle=orthogonalEdgeStyle;rounded=0;orthogonalLoop=1;jettySize=auto;html=1;exitX=0.5;exitY=1;exitDx=0;exitDy=0;entryX=0.75;entryY=0;entryDx=0;entryDy=0;" edge="1" parent="1" source="jI8Y15pv29QjvpD9m3hr-25" target="jI8Y15pv29QjvpD9m3hr-35">
          <mxGeometry relative="1" as="geometry">
            <Array as="points">
              <mxPoint x="970" y="570" />
              <mxPoint x="405" y="570" />
            </Array>
          </mxGeometry>
        </mxCell>
        <mxCell id="jI8Y15pv29QjvpD9m3hr-25" value="LobbyState" style="swimlane;fontStyle=0;childLayout=stackLayout;horizontal=1;startSize=26;fillColor=none;horizontalStack=0;resizeParent=1;resizeParentMax=0;resizeLast=0;collapsible=1;marginBottom=0;whiteSpace=wrap;html=1;" vertex="1" parent="1">
          <mxGeometry x="900" y="460" width="140" height="78" as="geometry" />
        </mxCell>
        <mxCell id="jI8Y15pv29QjvpD9m3hr-26" value="start" style="text;strokeColor=none;fillColor=none;align=left;verticalAlign=top;spacingLeft=4;spacingRight=4;overflow=hidden;rotatable=0;points=[[0,0.5],[1,0.5]];portConstraint=eastwest;whiteSpace=wrap;html=1;" vertex="1" parent="jI8Y15pv29QjvpD9m3hr-25">
          <mxGeometry y="26" width="140" height="26" as="geometry" />
        </mxCell>
        <mxCell id="jI8Y15pv29QjvpD9m3hr-27" value="leave" style="text;strokeColor=none;fillColor=none;align=left;verticalAlign=top;spacingLeft=4;spacingRight=4;overflow=hidden;rotatable=0;points=[[0,0.5],[1,0.5]];portConstraint=eastwest;whiteSpace=wrap;html=1;" vertex="1" parent="jI8Y15pv29QjvpD9m3hr-25">
          <mxGeometry y="52" width="140" height="26" as="geometry" />
        </mxCell>
        <mxCell id="jI8Y15pv29QjvpD9m3hr-28" value="Extends" style="endArrow=block;endSize=16;endFill=0;html=1;rounded=0;" edge="1" parent="1" source="jI8Y15pv29QjvpD9m3hr-29" target="jI8Y15pv29QjvpD9m3hr-15">
          <mxGeometry width="160" relative="1" as="geometry">
            <mxPoint x="1251" y="464" as="sourcePoint" />
            <mxPoint x="1127" y="366" as="targetPoint" />
          </mxGeometry>
        </mxCell>
        <mxCell id="jI8Y15pv29QjvpD9m3hr-60" style="edgeStyle=orthogonalEdgeStyle;rounded=0;orthogonalLoop=1;jettySize=auto;html=1;exitX=0.5;exitY=1;exitDx=0;exitDy=0;entryX=0.75;entryY=0;entryDx=0;entryDy=0;" edge="1" parent="1" source="jI8Y15pv29QjvpD9m3hr-29" target="jI8Y15pv29QjvpD9m3hr-35">
          <mxGeometry relative="1" as="geometry">
            <Array as="points">
              <mxPoint x="1131" y="570" />
              <mxPoint x="405" y="570" />
            </Array>
          </mxGeometry>
        </mxCell>
        <mxCell id="jI8Y15pv29QjvpD9m3hr-29" value="DisconnectedState" style="swimlane;fontStyle=0;childLayout=stackLayout;horizontal=1;startSize=26;fillColor=none;horizontalStack=0;resizeParent=1;resizeParentMax=0;resizeLast=0;collapsible=1;marginBottom=0;whiteSpace=wrap;html=1;" vertex="1" parent="1">
          <mxGeometry x="1061" y="460" width="140" height="78" as="geometry" />
        </mxCell>
        <mxCell id="jI8Y15pv29QjvpD9m3hr-30" value="create lobby" style="text;strokeColor=none;fillColor=none;align=left;verticalAlign=top;spacingLeft=4;spacingRight=4;overflow=hidden;rotatable=0;points=[[0,0.5],[1,0.5]];portConstraint=eastwest;whiteSpace=wrap;html=1;" vertex="1" parent="jI8Y15pv29QjvpD9m3hr-29">
          <mxGeometry y="26" width="140" height="26" as="geometry" />
        </mxCell>
        <mxCell id="jI8Y15pv29QjvpD9m3hr-31" value="join lobby" style="text;strokeColor=none;fillColor=none;align=left;verticalAlign=top;spacingLeft=4;spacingRight=4;overflow=hidden;rotatable=0;points=[[0,0.5],[1,0.5]];portConstraint=eastwest;whiteSpace=wrap;html=1;" vertex="1" parent="jI8Y15pv29QjvpD9m3hr-29">
          <mxGeometry y="52" width="140" height="26" as="geometry" />
        </mxCell>
        <mxCell id="jI8Y15pv29QjvpD9m3hr-34" value="" style="endArrow=open;html=1;endSize=12;startArrow=diamondThin;startSize=14;startFill=1;edgeStyle=orthogonalEdgeStyle;align=left;verticalAlign=bottom;rounded=0;" edge="1" parent="1" source="jI8Y15pv29QjvpD9m3hr-1" target="jI8Y15pv29QjvpD9m3hr-35">
          <mxGeometry x="-1" y="3" relative="1" as="geometry">
            <mxPoint x="430" y="379" as="sourcePoint" />
            <mxPoint x="510" y="584" as="targetPoint" />
            <Array as="points" />
          </mxGeometry>
        </mxCell>
        <mxCell id="jI8Y15pv29QjvpD9m3hr-53" style="edgeStyle=orthogonalEdgeStyle;rounded=0;orthogonalLoop=1;jettySize=auto;html=1;exitX=0.5;exitY=1;exitDx=0;exitDy=0;entryX=0;entryY=0.5;entryDx=0;entryDy=0;" edge="1" parent="1" source="jI8Y15pv29QjvpD9m3hr-35" target="jI8Y15pv29QjvpD9m3hr-47">
          <mxGeometry relative="1" as="geometry" />
        </mxCell>
        <mxCell id="jI8Y15pv29QjvpD9m3hr-35" value="ServerCommunicator" style="swimlane;fontStyle=1;align=center;verticalAlign=top;childLayout=stackLayout;horizontal=1;startSize=26;horizontalStack=0;resizeParent=1;resizeParentMax=0;resizeLast=0;collapsible=1;marginBottom=0;whiteSpace=wrap;html=1;" vertex="1" parent="1">
          <mxGeometry x="285" y="560" width="160" height="100" as="geometry" />
        </mxCell>
        <mxCell id="jI8Y15pv29QjvpD9m3hr-36" value="+ field: type" style="text;strokeColor=none;fillColor=none;align=left;verticalAlign=top;spacingLeft=4;spacingRight=4;overflow=hidden;rotatable=0;points=[[0,0.5],[1,0.5]];portConstraint=eastwest;whiteSpace=wrap;html=1;" vertex="1" parent="jI8Y15pv29QjvpD9m3hr-35">
          <mxGeometry y="26" width="160" height="26" as="geometry" />
        </mxCell>
        <mxCell id="jI8Y15pv29QjvpD9m3hr-37" value="" style="line;strokeWidth=1;fillColor=none;align=left;verticalAlign=middle;spacingTop=-1;spacingLeft=3;spacingRight=3;rotatable=0;labelPosition=right;points=[];portConstraint=eastwest;strokeColor=inherit;" vertex="1" parent="jI8Y15pv29QjvpD9m3hr-35">
          <mxGeometry y="52" width="160" height="8" as="geometry" />
        </mxCell>
        <mxCell id="jI8Y15pv29QjvpD9m3hr-38" value="&lt;div&gt;+ (sends messages to the server based on command)&lt;/div&gt;&lt;div&gt;&lt;br&gt;&lt;/div&gt;" style="text;strokeColor=none;fillColor=none;align=left;verticalAlign=top;spacingLeft=4;spacingRight=4;overflow=hidden;rotatable=0;points=[[0,0.5],[1,0.5]];portConstraint=eastwest;whiteSpace=wrap;html=1;" vertex="1" parent="jI8Y15pv29QjvpD9m3hr-35">
          <mxGeometry y="60" width="160" height="40" as="geometry" />
        </mxCell>
        <mxCell id="jI8Y15pv29QjvpD9m3hr-42" value="ObserverCommunicator" style="swimlane;fontStyle=1;align=center;verticalAlign=top;childLayout=stackLayout;horizontal=1;startSize=26;horizontalStack=0;resizeParent=1;resizeParentMax=0;resizeLast=0;collapsible=1;marginBottom=0;whiteSpace=wrap;html=1;" vertex="1" parent="1">
          <mxGeometry x="480" y="700" width="160" height="138" as="geometry" />
        </mxCell>
        <mxCell id="jI8Y15pv29QjvpD9m3hr-43" value="+ field: type" style="text;strokeColor=none;fillColor=none;align=left;verticalAlign=top;spacingLeft=4;spacingRight=4;overflow=hidden;rotatable=0;points=[[0,0.5],[1,0.5]];portConstraint=eastwest;whiteSpace=wrap;html=1;" vertex="1" parent="jI8Y15pv29QjvpD9m3hr-42">
          <mxGeometry y="26" width="160" height="26" as="geometry" />
        </mxCell>
        <mxCell id="jI8Y15pv29QjvpD9m3hr-44" value="" style="line;strokeWidth=1;fillColor=none;align=left;verticalAlign=middle;spacingTop=-1;spacingLeft=3;spacingRight=3;rotatable=0;labelPosition=right;points=[];portConstraint=eastwest;strokeColor=inherit;" vertex="1" parent="jI8Y15pv29QjvpD9m3hr-42">
          <mxGeometry y="52" width="160" height="8" as="geometry" />
        </mxCell>
        <mxCell id="jI8Y15pv29QjvpD9m3hr-45" value="&lt;div&gt;+ listenAndReact():&lt;/div&gt;" style="text;strokeColor=none;fillColor=none;align=left;verticalAlign=top;spacingLeft=4;spacingRight=4;overflow=hidden;rotatable=0;points=[[0,0.5],[1,0.5]];portConstraint=eastwest;whiteSpace=wrap;html=1;" vertex="1" parent="jI8Y15pv29QjvpD9m3hr-42">
          <mxGeometry y="60" width="160" height="26" as="geometry" />
        </mxCell>
        <mxCell id="jI8Y15pv29QjvpD9m3hr-47" value="&lt;div&gt;+ changeClientState();&lt;/div&gt;&lt;div&gt;&lt;br&gt;&lt;/div&gt;" style="text;strokeColor=none;fillColor=none;align=left;verticalAlign=top;spacingLeft=4;spacingRight=4;overflow=hidden;rotatable=0;points=[[0,0.5],[1,0.5]];portConstraint=eastwest;whiteSpace=wrap;html=1;" vertex="1" parent="jI8Y15pv29QjvpD9m3hr-42">
          <mxGeometry y="86" width="160" height="26" as="geometry" />
        </mxCell>
        <mxCell id="jI8Y15pv29QjvpD9m3hr-48" value="+ makeMove();" style="text;strokeColor=none;fillColor=none;align=left;verticalAlign=top;spacingLeft=4;spacingRight=4;overflow=hidden;rotatable=0;points=[[0,0.5],[1,0.5]];portConstraint=eastwest;whiteSpace=wrap;html=1;" vertex="1" parent="jI8Y15pv29QjvpD9m3hr-42">
          <mxGeometry y="112" width="160" height="26" as="geometry" />
        </mxCell>
        <mxCell id="jI8Y15pv29QjvpD9m3hr-52" value="State" style="text;html=1;align=center;verticalAlign=middle;resizable=0;points=[];autosize=1;strokeColor=none;fillColor=none;" vertex="1" parent="1">
          <mxGeometry x="590" y="60" width="50" height="30" as="geometry" />
        </mxCell>
        <mxCell id="jI8Y15pv29QjvpD9m3hr-54" value="creates &amp;amp; starts" style="text;html=1;align=center;verticalAlign=middle;resizable=0;points=[];autosize=1;strokeColor=none;fillColor=none;" vertex="1" parent="1">
          <mxGeometry x="359" y="670" width="110" height="30" as="geometry" />
        </mxCell>
        <mxCell id="jI8Y15pv29QjvpD9m3hr-55" style="edgeStyle=orthogonalEdgeStyle;rounded=0;orthogonalLoop=1;jettySize=auto;html=1;exitX=0.5;exitY=0;exitDx=0;exitDy=0;entryX=1;entryY=0.885;entryDx=0;entryDy=0;entryPerimeter=0;" edge="1" parent="1" source="jI8Y15pv29QjvpD9m3hr-42" target="jI8Y15pv29QjvpD9m3hr-2">
          <mxGeometry relative="1" as="geometry" />
        </mxCell>
        <mxCell id="jI8Y15pv29QjvpD9m3hr-56" value="changes state" style="text;html=1;align=center;verticalAlign=middle;resizable=0;points=[];autosize=1;strokeColor=none;fillColor=none;" vertex="1" parent="1">
          <mxGeometry x="550" y="630" width="100" height="30" as="geometry" />
        </mxCell>
        <mxCell id="jI8Y15pv29QjvpD9m3hr-57" value="sends move" style="text;html=1;align=center;verticalAlign=middle;resizable=0;points=[];autosize=1;strokeColor=none;fillColor=none;" vertex="1" parent="1">
          <mxGeometry x="555" y="660" width="90" height="30" as="geometry" />
        </mxCell>
        <mxCell id="jI8Y15pv29QjvpD9m3hr-58" style="edgeStyle=orthogonalEdgeStyle;rounded=0;orthogonalLoop=1;jettySize=auto;html=1;exitX=0;exitY=0.5;exitDx=0;exitDy=0;" edge="1" parent="1" source="jI8Y15pv29QjvpD9m3hr-22" target="jI8Y15pv29QjvpD9m3hr-35">
          <mxGeometry relative="1" as="geometry">
            <mxPoint x="500" y="540" as="targetPoint" />
            <Array as="points">
              <mxPoint x="740" y="570" />
            </Array>
          </mxGeometry>
        </mxCell>
        <mxCell id="jI8Y15pv29QjvpD9m3hr-61" value="call methods to send to" style="text;html=1;align=center;verticalAlign=middle;resizable=0;points=[];autosize=1;strokeColor=none;fillColor=none;" vertex="1" parent="1">
          <mxGeometry x="855" y="568" width="150" height="30" as="geometry" />
        </mxCell>
        <mxCell id="jI8Y15pv29QjvpD9m3hr-62" value="Main" style="swimlane;fontStyle=1;align=center;verticalAlign=top;childLayout=stackLayout;horizontal=1;startSize=26;horizontalStack=0;resizeParent=1;resizeParentMax=0;resizeLast=0;collapsible=1;marginBottom=0;whiteSpace=wrap;html=1;" vertex="1" parent="1">
          <mxGeometry x="10" y="440" width="160" height="86" as="geometry" />
        </mxCell>
        <mxCell id="jI8Y15pv29QjvpD9m3hr-63" value="+ field: type" style="text;strokeColor=none;fillColor=none;align=left;verticalAlign=top;spacingLeft=4;spacingRight=4;overflow=hidden;rotatable=0;points=[[0,0.5],[1,0.5]];portConstraint=eastwest;whiteSpace=wrap;html=1;" vertex="1" parent="jI8Y15pv29QjvpD9m3hr-62">
          <mxGeometry y="26" width="160" height="26" as="geometry" />
        </mxCell>
        <mxCell id="jI8Y15pv29QjvpD9m3hr-64" value="" style="line;strokeWidth=1;fillColor=none;align=left;verticalAlign=middle;spacingTop=-1;spacingLeft=3;spacingRight=3;rotatable=0;labelPosition=right;points=[];portConstraint=eastwest;strokeColor=inherit;" vertex="1" parent="jI8Y15pv29QjvpD9m3hr-62">
          <mxGeometry y="52" width="160" height="8" as="geometry" />
        </mxCell>
        <mxCell id="jI8Y15pv29QjvpD9m3hr-65" value="+ method(type): type" style="text;strokeColor=none;fillColor=none;align=left;verticalAlign=top;spacingLeft=4;spacingRight=4;overflow=hidden;rotatable=0;points=[[0,0.5],[1,0.5]];portConstraint=eastwest;whiteSpace=wrap;html=1;" vertex="1" parent="jI8Y15pv29QjvpD9m3hr-62">
          <mxGeometry y="60" width="160" height="26" as="geometry" />
        </mxCell>
        <mxCell id="jI8Y15pv29QjvpD9m3hr-66" style="edgeStyle=orthogonalEdgeStyle;rounded=0;orthogonalLoop=1;jettySize=auto;html=1;exitX=1;exitY=0.5;exitDx=0;exitDy=0;" edge="1" parent="1" source="jI8Y15pv29QjvpD9m3hr-63" target="jI8Y15pv29QjvpD9m3hr-35">
          <mxGeometry relative="1" as="geometry">
            <Array as="points">
              <mxPoint x="190" y="479" />
              <mxPoint x="190" y="610" />
            </Array>
          </mxGeometry>
        </mxCell>
        <mxCell id="jI8Y15pv29QjvpD9m3hr-67" style="edgeStyle=orthogonalEdgeStyle;rounded=0;orthogonalLoop=1;jettySize=auto;html=1;exitX=1;exitY=0.5;exitDx=0;exitDy=0;" edge="1" parent="1" source="jI8Y15pv29QjvpD9m3hr-63" target="jI8Y15pv29QjvpD9m3hr-1">
          <mxGeometry relative="1" as="geometry">
            <Array as="points">
              <mxPoint x="190" y="479" />
              <mxPoint x="190" y="390" />
              <mxPoint x="365" y="390" />
            </Array>
          </mxGeometry>
        </mxCell>
        <mxCell id="jI8Y15pv29QjvpD9m3hr-68" value="creates and runs" style="text;html=1;align=center;verticalAlign=middle;resizable=0;points=[];autosize=1;strokeColor=none;fillColor=none;" vertex="1" parent="1">
          <mxGeometry x="190" y="468" width="110" height="30" as="geometry" />
        </mxCell>
        <mxCell id="jI8Y15pv29QjvpD9m3hr-69" value="diagram jest uproszczony" style="shape=note;whiteSpace=wrap;html=1;backgroundOutline=1;darkOpacity=0.05;fillStyle=solid;direction=west;gradientDirection=north;shadow=1;size=20;pointerEvents=1;" vertex="1" parent="1">
          <mxGeometry x="70" y="90" width="180" height="70" as="geometry" />
        </mxCell>
        <mxCell id="jI8Y15pv29QjvpD9m3hr-70" value="1" style="text;html=1;align=center;verticalAlign=middle;resizable=0;points=[];autosize=1;strokeColor=none;fillColor=none;" vertex="1" parent="1">
          <mxGeometry x="370" y="379" width="30" height="30" as="geometry" />
        </mxCell>
        <mxCell id="jI8Y15pv29QjvpD9m3hr-71" value="1" style="text;html=1;align=center;verticalAlign=middle;resizable=0;points=[];autosize=1;strokeColor=none;fillColor=none;" vertex="1" parent="1">
          <mxGeometry x="375" y="526" width="30" height="30" as="geometry" />
        </mxCell>
      </root>
    </mxGraphModel>
  </diagram>
</mxfile>
